<svg xmlns="http://www.w3.org/2000/svg" viewBox="0 0 740.99 328.82"><defs></defs><g id="Layer_2" data-name="Layer 2"><g id="Layer_3" data-name="Layer 3"><path class="cls-1" d="M741,64.32V75.39a10.42,10.42,0,1,0,0,20.84v11.06a10.42,10.42,0,1,0,0,20.84v11.06A10.42,10.42,0,1,0,741,160V171.1a10.42,10.42,0,1,0,0,20.84V203a10.42,10.42,0,1,0,0,20.84V234.9a10.43,10.43,0,0,0,0,20.85v11.06a10.42,10.42,0,1,0,0,20.84v11.06a10.42,10.42,0,1,0,0,20.84v9.27H0v-9.27a10.42,10.42,0,0,0,10.42-10.42A10.43,10.43,0,0,0,0,298.71V287.65a10.43,10.43,0,0,0,10.42-10.42A10.42,10.42,0,0,0,0,266.81V255.75a10.43,10.43,0,0,0,10.42-10.42A10.43,10.43,0,0,0,0,234.9V223.84a10.42,10.42,0,0,0,10.42-10.42A10.43,10.43,0,0,0,0,203V191.94a10.43,10.43,0,0,0,10.42-10.42A10.42,10.42,0,0,0,0,171.1V160a10.42,10.42,0,0,0,10.42-10.42A10.43,10.43,0,0,0,0,139.19V128.13a10.43,10.43,0,0,0,10.42-10.42A10.42,10.42,0,0,0,0,107.29V96.23A10.43,10.43,0,0,0,10.42,85.81,10.42,10.42,0,0,0,0,75.39V64.32A10.42,10.42,0,0,0,10.42,53.9,10.43,10.43,0,0,0,0,43.48V32.42A10.43,10.43,0,0,0,10.42,22,10.42,10.42,0,0,0,0,11.58V0H741V11.58a10.42,10.42,0,1,0,0,20.84V43.48a10.42,10.42,0,1,0,0,20.84Z" fill="#fffadd"></path></g></g></svg>